<?xml version="1.0" encoding="UTF-8"?>
<svg width="32" height="32" viewBox="0 0 32 32" xmlns="http://www.w3.org/2000/svg">
  <!-- Fundo -->
  <rect width="32" height="32" fill="#7fbb5a" />
  
  <!-- Padrão de grama em pixel art -->
  <rect x="0" y="0" width="4" height="4" fill="#6aa84f" />
  <rect x="8" y="0" width="4" height="4" fill="#6aa84f" />
  <rect x="16" y="0" width="4" height="4" fill="#6aa84f" />
  <rect x="24" y="0" width="4" height="4" fill="#6aa84f" />
  
  <rect x="4" y="4" width="4" height="4" fill="#6aa84f" />
  <rect x="12" y="4" width="4" height="4" fill="#6aa84f" />
  <rect x="20" y="4" width="4" height="4" fill="#6aa84f" />
  <rect x="28" y="4" width="4" height="4" fill="#6aa84f" />
  
  <rect x="0" y="8" width="4" height="4" fill="#6aa84f" />
  <rect x="8" y="8" width="4" height="4" fill="#6aa84f" />
  <rect x="16" y="8" width="4" height="4" fill="#6aa84f" />
  <rect x="24" y="8" width="4" height="4" fill="#6aa84f" />
  
  <rect x="4" y="12" width="4" height="4" fill="#6aa84f" />
  <rect x="12" y="12" width="4" height="4" fill="#6aa84f" />
  <rect x="20" y="12" width="4" height="4" fill="#6aa84f" />
  <rect x="28" y="12" width="4" height="4" fill="#6aa84f" />
  
  <!-- Detalhes de grama em pixel -->
  <rect x="2" y="2" width="2" height="2" fill="#5d8c3a" />
  <rect x="10" y="2" width="2" height="2" fill="#5d8c3a" />
  <rect x="18" y="2" width="2" height="2" fill="#5d8c3a" />
  <rect x="26" y="2" width="2" height="2" fill="#5d8c3a" />
  
  <rect x="6" y="6" width="2" height="2" fill="#5d8c3a" />
  <rect x="14" y="6" width="2" height="2" fill="#5d8c3a" />
  <rect x="22" y="6" width="2" height="2" fill="#5d8c3a" />
  <rect x="30" y="6" width="2" height="2" fill="#5d8c3a" />
  
  <rect x="2" y="10" width="2" height="2" fill="#5d8c3a" />
  <rect x="10" y="10" width="2" height="2" fill="#5d8c3a" />
  <rect x="18" y="10" width="2" height="2" fill="#5d8c3a" />
  <rect x="26" y="10" width="2" height="2" fill="#5d8c3a" />
  
  <rect x="6" y="14" width="2" height="2" fill="#5d8c3a" />
  <rect x="14" y="14" width="2" height="2" fill="#5d8c3a" />
  <rect x="22" y="14" width="2" height="2" fill="#5d8c3a" />
  <rect x="30" y="14" width="2" height="2" fill="#5d8c3a" />
</svg> 