<?xml version="1.0" encoding="UTF-8"?>
<svg width="32" height="32" viewBox="0 0 32 32" xmlns="http://www.w3.org/2000/svg">
  <!-- Gabinete do servidor -->
  <rect x="4" y="4" width="24" height="24" fill="#333333" stroke="#222222" stroke-width="1"/>
  <!-- Unidades do rack -->
  <rect x="6" y="6" width="20" height="4" fill="#5533aa" stroke="#442299" stroke-width="0.5"/>
  <rect x="6" y="12" width="20" height="4" fill="#5533aa" stroke="#442299" stroke-width="0.5"/>
  <rect x="6" y="18" width="20" height="4" fill="#5533aa" stroke="#442299" stroke-width="0.5"/>
  <!-- LEDs -->
  <circle cx="8" cy="8" r="1" fill="#00ff00"/>
  <circle cx="12" cy="8" r="1" fill="#00ff00"/>
  <circle cx="16" cy="8" r="1" fill="#00ff00"/>
  <circle cx="20" cy="8" r="1" fill="#00ff00"/>
  <circle cx="24" cy="8" r="1" fill="#00ff00"/>
  <circle cx="8" cy="14" r="1" fill="#00ff00"/>
  <circle cx="12" cy="14" r="1" fill="#00ff00"/>
  <circle cx="16" cy="14" r="1" fill="#00ff00"/>
  <circle cx="20" cy="14" r="1" fill="#00ff00"/>
  <circle cx="24" cy="14" r="1" fill="#00ff00"/>
  <circle cx="8" cy="20" r="1" fill="#00ff00"/>
  <circle cx="12" cy="20" r="1" fill="#00ff00"/>
  <circle cx="16" cy="20" r="1" fill="#00ff00"/>
  <circle cx="20" cy="20" r="1" fill="#00ff00"/>
  <circle cx="24" cy="20" r="1" fill="#00ff00"/>
  <!-- Ventilação -->
  <line x1="6" y1="10" x2="26" y2="10" stroke="#5533aa" stroke-width="0.5"/>
  <line x1="6" y1="16" x2="26" y2="16" stroke="#5533aa" stroke-width="0.5"/>
  <line x1="6" y1="22" x2="26" y2="22" stroke="#5533aa" stroke-width="0.5"/>
</svg> 