<?xml version="1.0" encoding="UTF-8"?>
<svg width="32" height="32" viewBox="0 0 32 32" xmlns="http://www.w3.org/2000/svg">
  <!-- Fundo de água -->
  <rect width="32" height="32" fill="#3498db" />
  
  <!-- Padrão de ondas em pixel art -->
  <rect x="0" y="4" width="4" height="4" fill="#2980b9" />
  <rect x="8" y="4" width="4" height="4" fill="#2980b9" />
  <rect x="16" y="4" width="4" height="4" fill="#2980b9" />
  <rect x="24" y="4" width="4" height="4" fill="#2980b9" />
  
  <rect x="4" y="8" width="4" height="4" fill="#2980b9" />
  <rect x="12" y="8" width="4" height="4" fill="#2980b9" />
  <rect x="20" y="8" width="4" height="4" fill="#2980b9" />
  <rect x="28" y="8" width="4" height="4" fill="#2980b9" />
  
  <rect x="0" y="12" width="4" height="4" fill="#2980b9" />
  <rect x="8" y="12" width="4" height="4" fill="#2980b9" />
  <rect x="16" y="12" width="4" height="4" fill="#2980b9" />
  <rect x="24" y="12" width="4" height="4" fill="#2980b9" />
  
  <!-- Reflexos de luz em pixel -->
  <rect x="2" y="6" width="2" height="2" fill="#ecf0f1" opacity="0.3" />
  <rect x="10" y="6" width="2" height="2" fill="#ecf0f1" opacity="0.3" />
  <rect x="18" y="6" width="2" height="2" fill="#ecf0f1" opacity="0.3" />
  <rect x="26" y="6" width="2" height="2" fill="#ecf0f1" opacity="0.3" />
  
  <rect x="6" y="10" width="2" height="2" fill="#ecf0f1" opacity="0.3" />
  <rect x="14" y="10" width="2" height="2" fill="#ecf0f1" opacity="0.3" />
  <rect x="22" y="10" width="2" height="2" fill="#ecf0f1" opacity="0.3" />
  <rect x="30" y="10" width="2" height="2" fill="#ecf0f1" opacity="0.3" />
  
  <!-- Animação de ondas em pixel -->
  <rect x="4" y="16" width="4" height="4" fill="#2980b9" />
  <rect x="12" y="16" width="4" height="4" fill="#2980b9" />
  <rect x="20" y="16" width="4" height="4" fill="#2980b9" />
  <rect x="28" y="16" width="4" height="4" fill="#2980b9" />
  
  <rect x="0" y="20" width="4" height="4" fill="#2980b9" />
  <rect x="8" y="20" width="4" height="4" fill="#2980b9" />
  <rect x="16" y="20" width="4" height="4" fill="#2980b9" />
  <rect x="24" y="20" width="4" height="4" fill="#2980b9" />
</svg> 